<mxfile host="app.diagrams.net" modified="2021-03-08T09:18:56.094Z" agent="5.0 (Windows NT 10.0; WOW64) AppleWebKit/537.36 (KHTML, like Gecko) Chrome/87.0.4280.66 Safari/537.36" etag="t1xHn7ZypsR1DzE2DnyH" version="14.1.9" type="github">
  <diagram id="2iEgrzqwthku0qyoXni9" name="Page-1">
    <mxGraphModel dx="1422" dy="802" grid="1" gridSize="10" guides="1" tooltips="1" connect="1" arrows="1" fold="1" page="1" pageScale="1" pageWidth="827" pageHeight="1169" math="0" shadow="0">
      <root>
        <mxCell id="0" />
        <mxCell id="1" parent="0" />
        <mxCell id="--qqEkhbz3xdHP4a-b7E-33" style="edgeStyle=orthogonalEdgeStyle;rounded=0;orthogonalLoop=1;jettySize=auto;html=1;entryX=0;entryY=0.5;entryDx=0;entryDy=0;" parent="1" source="--qqEkhbz3xdHP4a-b7E-2" target="--qqEkhbz3xdHP4a-b7E-3" edge="1">
          <mxGeometry relative="1" as="geometry" />
        </mxCell>
        <mxCell id="--qqEkhbz3xdHP4a-b7E-2" value="L1Room" style="rounded=1;whiteSpace=wrap;html=1;imageWidth=15;imageHeight=15;" parent="1" vertex="1">
          <mxGeometry x="280" y="360" width="80" height="40" as="geometry" />
        </mxCell>
        <mxCell id="--qqEkhbz3xdHP4a-b7E-34" style="edgeStyle=orthogonalEdgeStyle;rounded=0;orthogonalLoop=1;jettySize=auto;html=1;entryX=0;entryY=0.5;entryDx=0;entryDy=0;" parent="1" source="--qqEkhbz3xdHP4a-b7E-3" target="--qqEkhbz3xdHP4a-b7E-4" edge="1">
          <mxGeometry relative="1" as="geometry" />
        </mxCell>
        <mxCell id="--qqEkhbz3xdHP4a-b7E-3" value="L2Room" style="rounded=1;whiteSpace=wrap;html=1;imageWidth=15;imageHeight=15;" parent="1" vertex="1">
          <mxGeometry x="400" y="360" width="80" height="40" as="geometry" />
        </mxCell>
        <mxCell id="--qqEkhbz3xdHP4a-b7E-4" value="Room" style="rounded=1;whiteSpace=wrap;html=1;imageWidth=15;imageHeight=15;" parent="1" vertex="1">
          <mxGeometry x="520" y="360" width="80" height="40" as="geometry" />
        </mxCell>
        <mxCell id="--qqEkhbz3xdHP4a-b7E-35" style="edgeStyle=orthogonalEdgeStyle;rounded=0;orthogonalLoop=1;jettySize=auto;html=1;exitX=1;exitY=0.5;exitDx=0;exitDy=0;entryX=0;entryY=0.5;entryDx=0;entryDy=0;" parent="1" source="--qqEkhbz3xdHP4a-b7E-5" target="--qqEkhbz3xdHP4a-b7E-6" edge="1">
          <mxGeometry relative="1" as="geometry" />
        </mxCell>
        <mxCell id="--qqEkhbz3xdHP4a-b7E-37" style="edgeStyle=orthogonalEdgeStyle;rounded=0;orthogonalLoop=1;jettySize=auto;html=1;entryX=0.5;entryY=1;entryDx=0;entryDy=0;" parent="1" source="--qqEkhbz3xdHP4a-b7E-5" target="--qqEkhbz3xdHP4a-b7E-2" edge="1">
          <mxGeometry relative="1" as="geometry" />
        </mxCell>
        <mxCell id="--qqEkhbz3xdHP4a-b7E-5" value="L1Hotel" style="rounded=1;whiteSpace=wrap;html=1;imageWidth=15;imageHeight=15;" parent="1" vertex="1">
          <mxGeometry x="280" y="440" width="80" height="40" as="geometry" />
        </mxCell>
        <mxCell id="--qqEkhbz3xdHP4a-b7E-36" style="edgeStyle=orthogonalEdgeStyle;rounded=0;orthogonalLoop=1;jettySize=auto;html=1;entryX=0;entryY=0.5;entryDx=0;entryDy=0;" parent="1" source="--qqEkhbz3xdHP4a-b7E-6" target="--qqEkhbz3xdHP4a-b7E-7" edge="1">
          <mxGeometry relative="1" as="geometry" />
        </mxCell>
        <mxCell id="--qqEkhbz3xdHP4a-b7E-38" style="edgeStyle=orthogonalEdgeStyle;rounded=0;orthogonalLoop=1;jettySize=auto;html=1;entryX=0.5;entryY=1;entryDx=0;entryDy=0;" parent="1" source="--qqEkhbz3xdHP4a-b7E-6" target="--qqEkhbz3xdHP4a-b7E-3" edge="1">
          <mxGeometry relative="1" as="geometry" />
        </mxCell>
        <mxCell id="--qqEkhbz3xdHP4a-b7E-6" value="L2Hotel" style="rounded=1;whiteSpace=wrap;html=1;imageWidth=15;imageHeight=15;" parent="1" vertex="1">
          <mxGeometry x="400" y="440" width="80" height="40" as="geometry" />
        </mxCell>
        <mxCell id="--qqEkhbz3xdHP4a-b7E-39" style="edgeStyle=orthogonalEdgeStyle;rounded=0;orthogonalLoop=1;jettySize=auto;html=1;entryX=0.5;entryY=1;entryDx=0;entryDy=0;" parent="1" source="--qqEkhbz3xdHP4a-b7E-7" target="--qqEkhbz3xdHP4a-b7E-4" edge="1">
          <mxGeometry relative="1" as="geometry" />
        </mxCell>
        <mxCell id="--qqEkhbz3xdHP4a-b7E-7" value="Hotel" style="rounded=1;whiteSpace=wrap;html=1;imageWidth=15;imageHeight=15;" parent="1" vertex="1">
          <mxGeometry x="520" y="440" width="80" height="40" as="geometry" />
        </mxCell>
        <mxCell id="--qqEkhbz3xdHP4a-b7E-40" style="edgeStyle=orthogonalEdgeStyle;rounded=0;orthogonalLoop=1;jettySize=auto;html=1;entryX=0.5;entryY=1;entryDx=0;entryDy=0;" parent="1" source="--qqEkhbz3xdHP4a-b7E-8" target="--qqEkhbz3xdHP4a-b7E-5" edge="1">
          <mxGeometry relative="1" as="geometry" />
        </mxCell>
        <mxCell id="--qqEkhbz3xdHP4a-b7E-43" style="edgeStyle=orthogonalEdgeStyle;rounded=0;orthogonalLoop=1;jettySize=auto;html=1;entryX=1;entryY=0.5;entryDx=0;entryDy=0;" parent="1" source="--qqEkhbz3xdHP4a-b7E-8" target="--qqEkhbz3xdHP4a-b7E-10" edge="1">
          <mxGeometry relative="1" as="geometry" />
        </mxCell>
        <mxCell id="--qqEkhbz3xdHP4a-b7E-45" style="edgeStyle=orthogonalEdgeStyle;rounded=0;orthogonalLoop=1;jettySize=auto;html=1;entryX=0.5;entryY=0;entryDx=0;entryDy=0;" parent="1" source="--qqEkhbz3xdHP4a-b7E-8" target="--qqEkhbz3xdHP4a-b7E-13" edge="1">
          <mxGeometry relative="1" as="geometry">
            <Array as="points">
              <mxPoint x="320" y="580" />
              <mxPoint x="200" y="580" />
            </Array>
          </mxGeometry>
        </mxCell>
        <mxCell id="--qqEkhbz3xdHP4a-b7E-46" style="edgeStyle=orthogonalEdgeStyle;rounded=0;orthogonalLoop=1;jettySize=auto;html=1;entryX=0.5;entryY=0;entryDx=0;entryDy=0;" parent="1" source="--qqEkhbz3xdHP4a-b7E-8" target="--qqEkhbz3xdHP4a-b7E-9" edge="1">
          <mxGeometry relative="1" as="geometry" />
        </mxCell>
        <mxCell id="--qqEkhbz3xdHP4a-b7E-47" style="edgeStyle=orthogonalEdgeStyle;rounded=0;orthogonalLoop=1;jettySize=auto;html=1;entryX=0.5;entryY=0;entryDx=0;entryDy=0;" parent="1" source="--qqEkhbz3xdHP4a-b7E-8" target="--qqEkhbz3xdHP4a-b7E-12" edge="1">
          <mxGeometry relative="1" as="geometry">
            <Array as="points">
              <mxPoint x="320" y="580" />
              <mxPoint x="440" y="580" />
            </Array>
          </mxGeometry>
        </mxCell>
        <mxCell id="--qqEkhbz3xdHP4a-b7E-8" value="OTA" style="rounded=1;whiteSpace=wrap;html=1;imageWidth=15;imageHeight=15;" parent="1" vertex="1">
          <mxGeometry x="280" y="520" width="80" height="40" as="geometry" />
        </mxCell>
        <mxCell id="--qqEkhbz3xdHP4a-b7E-9" value="Vendor" style="rounded=1;whiteSpace=wrap;html=1;imageWidth=15;imageHeight=15;" parent="1" vertex="1">
          <mxGeometry x="280" y="600" width="80" height="40" as="geometry" />
        </mxCell>
        <mxCell id="--qqEkhbz3xdHP4a-b7E-10" value="L2Agency" style="rounded=1;whiteSpace=wrap;html=1;imageWidth=15;imageHeight=15;" parent="1" vertex="1">
          <mxGeometry x="160" y="520" width="80" height="40" as="geometry" />
        </mxCell>
        <mxCell id="--qqEkhbz3xdHP4a-b7E-12" value="GDS" style="rounded=1;whiteSpace=wrap;html=1;imageWidth=15;imageHeight=15;" parent="1" vertex="1">
          <mxGeometry x="400" y="600" width="80" height="40" as="geometry" />
        </mxCell>
        <mxCell id="--qqEkhbz3xdHP4a-b7E-13" value="Private" style="rounded=1;whiteSpace=wrap;html=1;imageWidth=15;imageHeight=15;" parent="1" vertex="1">
          <mxGeometry x="160" y="600" width="80" height="40" as="geometry" />
        </mxCell>
      </root>
    </mxGraphModel>
  </diagram>
</mxfile>
